<?xml version="1.0" encoding="UTF-8"?><svg xmlns="http://www.w3.org/2000/svg" viewBox="0 0 118 38" width="118" height="38"><path d="m81.57,17.98c2.09-2.13,4.99-3.45,8.2-3.45s6.24,1.39,8.34,3.6c-1.92.48-4.74.96-8.36.96-3.31,0-6.06-.54-8.18-1.11Zm8.18,15.8c-4.06,0-7.3-.78-9.6-1.45,2.05,3.13,5.59,5.2,9.62,5.2s7.38-1.97,9.46-4.97c-2,.57-5.22,1.22-9.48,1.22Zm11.48-8.61c-1.17.47-5.2,1.88-11.48,1.88-5.02,0-8.81-1.19-11.07-1.9-.13-.04-.24-.07-.36-.11-.03.33-.05.65-.05.99,0,1.69.37,3.29,1.03,4.73,2.22.7,5.79,1.77,10.45,1.77,1.58,0,2.99-.1,4.26-.24-1.62-.17-2.86-1.05-2.86-2.12,0-1.19,1.52-2.16,3.4-2.16s3.4.97,3.4,2.16c0,.72-.56,1.35-1.42,1.75,1.63-.31,2.85-.68,3.61-.95.72-1.5,1.13-3.17,1.13-4.94,0-.29-.02-.57-.04-.86ZM6.28,22.3h3.74c3.68,0,5.99-.71,7.7-2.36,1.98-1.87,2.91-4.62,2.91-8.58s-.93-6.65-2.91-8.52c-1.7-1.65-4.01-2.36-7.7-2.36H.62v36.68h5.66v-14.85Zm0-5.22V5.69h2.47c4.56,0,5.99,1.38,5.99,5.66s-1.43,5.72-5.99,5.72h-2.47ZM29.77.47h-5.11v36.68h5.11V.47Zm21.89,36.68c-.49-2.03-.6-3.3-.6-7.42v-12.15c0-3.35-.33-4.62-1.48-6.05-1.26-1.43-3.08-2.09-5.61-2.09-5.5,0-8.69,2.91-9.13,8.41h5.39c.22-2.75,1.1-3.91,3.02-3.91s2.69,1.1,2.69,3.91v1.43c-4.62,1.98-5.94,2.64-7.26,3.46-3.19,1.98-4.45,4.12-4.45,7.53,0,4.51,2.09,7.26,5.55,7.26,2.2,0,3.68-.88,6.16-3.57,0,1.32.17,2.42.44,3.19h5.28Zm-5.72-6.6c-.99,1.59-2.31,2.47-3.74,2.47s-2.58-1.27-2.58-3.08c0-2.53,1.81-4.45,6.32-6.87v7.48Zm15.51-20.73h-5.11v27.33h5.11v-20.46c1.26-1.76,2.8-2.75,4.18-2.75,1.48,0,1.98.77,1.98,3.19v20.02h5.11V15.81c0-4.34-1.43-6.38-4.46-6.38-2.42,0-4.45,1.15-6.82,3.9v-3.52Zm55.44,0h-4.67V2.34h-5.11v7.48h-3.96v4.56h3.96v15.12c0,3.46.27,4.79,1.26,6,1.1,1.37,2.97,2.03,5.55,2.03,1.15,0,2.03-.11,3.46-.38v-4.62c-.82.28-1.32.33-1.98.33-2.25,0-3.19-1.16-3.19-3.9v-14.57h4.67v-4.56Z" stroke-width="0"/></svg>
